<?xml version="1.0" encoding="iso-8859-1"?>
<!-- Uploaded to: SVG Repo, www.svgrepo.com, Generator: SVG Repo Mixer Tools -->
<svg version="1.1" id="Layer_1" xmlns="http://www.w3.org/2000/svg" xmlns:xlink="http://www.w3.org/1999/xlink" 
	 viewBox="0 0 341.077 341.077" xml:space="preserve">
<g>
	<circle style="fill:#28D2E4;" cx="152.368" cy="116.578" r="109.05"/>
	<g>
		<rect x="220.669" y="304.578" style="fill:#FFDB77;" width="69" height="29"/>
		<g>
			<path style="fill:#22313F;" d="M234.781,198.992c45.442-45.443,45.442-119.385,0-164.828
				c-45.552-45.551-119.274-45.552-164.827,0c-45.55,45.55-45.554,119.274,0,164.828
				C115.506,244.543,189.228,244.544,234.781,198.992z M75.454,50.271l24.698,24.698c-7.566,8.109-14.205,16.487-19.86,24.923
				L58.424,78.025C62.473,68.12,68.149,58.731,75.454,50.271z M113.814,22.633l21.868,21.868
				c-8.437,5.655-16.814,12.295-24.923,19.861L86.061,39.664C94.522,32.359,103.91,26.682,113.814,22.633z M229.282,182.885
				l-24.698-24.698c7.566-8.109,14.205-16.486,19.86-24.923l21.868,21.867C242.263,165.036,236.586,174.424,229.282,182.885z
				 M190.921,210.522l-21.866-21.866c8.437-5.655,16.813-12.296,24.922-19.862l24.698,24.698
				C210.214,200.796,200.825,206.473,190.921,210.522z M86.669,192.883l32.7-32.699l25.283,25.283
				C121.902,196.983,100.331,200.198,86.669,192.883z M129.976,149.577l22.392-22.392l30.982,30.982
				c-8.151,7.537-16.663,14.113-25.202,19.581L129.976,149.577z M193.957,147.56l-30.982-30.982l22.392-22.392l28.172,28.172
				C208.069,130.897,201.494,139.409,193.957,147.56z M195.974,83.579l32.7-32.699c7.315,13.661,4.1,35.233-7.417,57.982
				L195.974,83.579z M218.073,40.266l-32.706,32.706L160.075,47.68c14.531-7.358,28.585-11.329,40.402-11.329
				C207.164,36.351,213.135,37.622,218.073,40.266z M174.76,83.579l-22.392,22.392l-30.992-30.992
				c8.154-7.54,16.675-14.097,25.217-19.567L174.76,83.579z M110.779,85.596l30.982,30.982l-22.392,22.392l-28.172-28.172
				C96.666,102.259,103.242,93.747,110.779,85.596z M108.762,149.577l-32.699,32.7c-7.315-13.661-4.1-35.233,7.417-57.982
				L108.762,149.577z M115.081,211.026c12.795-1.786,26.714-6.664,40.778-14.353l18.919,18.919
				C154.991,220.037,134.126,218.514,115.081,211.026z M251.382,138.987l-18.914-18.914c7.691-14.066,12.562-27.987,14.347-40.784
				C254.303,98.335,255.827,119.2,251.382,138.987z M189.654,22.131c-12.797,1.786-26.716,6.657-40.781,14.347l-18.914-18.915
				C149.573,13.158,170.398,14.56,189.654,22.131z M53.354,94.168l18.914,18.914c-7.691,14.067-12.562,27.987-14.347,40.784
				C50.432,134.821,48.909,113.955,53.354,94.168z"/>
			<path style="fill:#22313F;" d="M289.669,297.078h-27v-74.646c57.438-59.789,56.924-154.837-2.197-213.958
				c-2.929-2.928-7.678-2.928-10.607,0c-2.929,2.93-2.929,7.678,0,10.607c53.887,53.886,53.891,141.104,0,194.994
				c-53.887,53.888-141.104,53.892-194.996,0c-2.929-2.928-7.678-2.928-10.606,0c-2.929,2.93-2.929,7.678,0,10.607
				c56.263,56.262,144.103,58.909,203.405,11.45v60.945h-27c-4.142,0-7.5,3.357-7.5,7.5v29c0,4.143,3.358,7.5,7.5,7.5h69
				c4.142,0,7.5-3.357,7.5-7.5v-29C297.169,300.435,293.811,297.078,289.669,297.078z M282.169,326.078h-54v-14h54V326.078z"/>
		</g>
	</g>
</g>
</svg>